<svg width="105" height="27" viewBox="0 0 105 27" fill="none" xmlns="http://www.w3.org/2000/svg">
<path d="M10.3719 11.9814H23.2595C23.5757 11.9814 23.8437 12.091 24.0637 12.3114C24.2974 12.5304 24.4142 12.7983 24.4142 13.115V21.404C24.4142 22.7382 23.9399 23.8784 22.9914 24.8272C22.0428 25.7761 20.9018 26.2499 19.5684 26.2499H4.84575C3.51234 26.2499 2.37135 25.7761 1.42276 24.8272C0.474298 23.8784 0 22.7382 0 21.404V13.115C0 12.7983 0.10993 12.5304 0.329921 12.3114C0.563638 12.091 0.838528 11.9814 1.15473 11.9814C1.47092 11.9814 1.73895 12.091 1.95894 12.3114C2.19266 12.5304 2.30945 12.7983 2.30945 13.115V21.404C2.30945 22.1047 2.55689 22.7026 3.05177 23.1988C3.54666 23.6923 4.1446 23.9404 4.84575 23.9404H19.5684C20.2696 23.9404 20.8675 23.6923 21.3624 23.1988C21.8573 22.7026 22.1047 22.1047 22.1047 21.404V14.2698H10.3719C10.042 14.2698 9.76699 14.1602 9.54713 13.9398C9.32714 13.7194 9.21721 13.445 9.21721 13.115C9.21721 12.7983 9.32714 12.5304 9.54713 12.3114C9.76699 12.091 10.042 11.9814 10.3719 11.9814ZM4.84575 0H19.5684C20.9018 0 22.0428 0.47509 22.9914 1.42394C23.9399 2.35828 24.4142 3.49189 24.4142 4.82609V5.75383C24.4142 6.06924 24.2974 6.34505 24.0637 6.57864C23.8437 6.7977 23.5757 6.90856 23.2595 6.90856C22.9433 6.90856 22.6752 6.7977 22.4552 6.57864C22.2215 6.34505 22.1047 6.06924 22.1047 5.75383V4.82609C22.1047 4.13853 21.8573 3.54731 21.3624 3.05243C20.8675 2.54303 20.2696 2.28966 19.5684 2.28966H4.84575C4.1446 2.28966 3.54666 2.54303 3.05177 3.05243C2.55689 3.54731 2.30945 4.13853 2.30945 4.82609C2.30945 5.14149 2.19266 5.41731 1.95894 5.65089C1.73895 5.86996 1.47092 5.98081 1.15473 5.98081C0.838528 5.98081 0.563638 5.86996 0.329921 5.65089C0.10993 5.41731 0 5.14149 0 4.82609C0 3.49189 0.474298 2.35828 1.42276 1.42394C2.37135 0.47509 3.51234 0 4.84575 0ZM35.2026 26.2499C34.8859 26.2499 34.6114 26.1403 34.3778 25.92C34.1574 25.6864 34.0479 25.4119 34.0479 25.0951V1.15473C34.0479 0.83932 34.1574 0.563506 34.3778 0.329921C34.6114 0.110854 34.8859 0 35.2026 0C35.5193 0 35.7872 0.110854 36.0063 0.329921C36.2399 0.563506 36.3573 0.83932 36.3573 1.15473V25.0951C36.3573 25.4119 36.2399 25.6864 36.0063 25.92C35.7872 26.1403 35.5193 26.2499 35.2026 26.2499ZM50.1151 22.1259C51.3384 23.336 52.802 23.9404 54.507 23.9404C54.8237 23.9404 55.0982 24.0579 55.3318 24.2915C55.5522 24.5105 55.6617 24.7784 55.6617 25.0951C55.6617 25.4119 55.5522 25.6864 55.3318 25.92C55.0982 26.1403 54.8237 26.2499 54.507 26.2499C52.1566 26.2499 50.1494 25.4185 48.4866 23.7543C46.8224 22.0915 45.991 20.0843 45.991 17.7339V1.15473C45.991 0.83932 46.1006 0.563506 46.321 0.329921C46.5546 0.110854 46.829 0 47.1458 0C47.4625 0 47.7304 0.110854 47.9495 0.329921C48.183 0.563506 48.3005 0.83932 48.3005 1.15473V17.7339C48.3005 19.439 48.9049 20.9025 50.1151 22.1259ZM68.4468 0.329921C68.6659 0.110854 68.9338 0 69.2505 0C69.5672 0 69.8351 0.110854 70.0542 0.329921C70.2878 0.563506 70.4052 0.83932 70.4052 1.15473V17.7339C70.4052 20.0843 69.5738 22.0915 67.9097 23.7543C66.2469 25.4185 64.2397 26.2499 61.8893 26.2499C61.5594 26.2499 61.2849 26.1403 61.0645 25.92C60.8441 25.6864 60.7346 25.4119 60.7346 25.0951C60.7346 24.7784 60.8441 24.5105 61.0645 24.2915C61.2849 24.0579 61.5594 23.9404 61.8893 23.9404C63.5943 23.9404 65.0579 23.336 66.2812 22.1259C67.4914 20.9025 68.0958 19.439 68.0958 17.7339V1.15473C68.0958 0.83932 68.2132 0.563506 68.4468 0.329921ZM104.453 1.15473V5.75383C104.453 7.29259 104.061 8.72972 103.277 10.0626C102.521 11.3559 101.497 12.3721 100.205 13.115C101.497 13.8712 102.521 14.8953 103.277 16.1873C104.061 17.507 104.453 18.9441 104.453 20.4974V25.0951C104.453 25.4119 104.336 25.6864 104.102 25.92C103.883 26.1403 103.615 26.2499 103.298 26.2499C102.982 26.2499 102.714 26.1403 102.495 25.92C102.261 25.6864 102.144 25.4119 102.144 25.0951V20.4974C102.144 18.7791 101.539 17.3143 100.329 16.1041C99.1058 14.8808 97.6422 14.2698 95.9372 14.2698H88.5549C86.8498 14.2698 85.3863 14.8808 84.163 16.1041C82.9528 17.3143 82.3484 18.7791 82.3484 20.4974V25.0951C82.3484 25.4119 82.2309 25.6864 81.9974 25.92C81.7783 26.1403 81.5104 26.2499 81.1937 26.2499C80.8769 26.2499 80.6024 26.1403 80.3689 25.92C80.1485 25.6864 80.0389 25.4119 80.0389 25.0951V20.4974C80.0389 18.9441 80.4309 17.507 81.2148 16.1873C81.971 14.8953 82.995 13.8712 84.287 13.115C82.995 12.3721 81.971 11.3559 81.2148 10.0626C80.4309 8.72972 80.0389 7.29259 80.0389 5.75383V1.15473C80.0389 0.83932 80.1485 0.563506 80.3689 0.329921C80.6024 0.110854 80.8769 0 81.1937 0C81.5104 0 81.7783 0.110854 81.9974 0.329921C82.2309 0.563506 82.3484 0.83932 82.3484 1.15473V5.75383C82.3484 7.47206 82.9528 8.93559 84.163 10.1457C85.3863 11.3691 86.8498 11.9814 88.5549 11.9814H95.9372C97.6422 11.9814 99.1058 11.3691 100.329 10.1457C101.539 8.93559 102.144 7.47206 102.144 5.75383V1.15473C102.144 0.83932 102.261 0.563506 102.495 0.329921C102.714 0.110854 102.982 0 103.298 0C103.615 0 103.883 0.110854 104.102 0.329921C104.336 0.563506 104.453 0.83932 104.453 1.15473Z" fill="#FFBA00"/>
</svg>
